<svg width="1200" height="800" viewBox="0 0 1200 800" fill="none" xmlns="http://www.w3.org/2000/svg">
  <defs>
    <linearGradient id="bg1" x1="0" y1="0" x2="1200" y2="800" gradientUnits="userSpaceOnUse">
      <stop stop-color="#0B1020"/>
      <stop offset="1" stop-color="#182A52"/>
    </linearGradient>
    <linearGradient id="g1" x1="160" y1="620" x2="160" y2="360" gradientUnits="userSpaceOnUse">
      <stop stop-color="#22C55E"/>
      <stop offset="1" stop-color="#86EFAC"/>
    </linearGradient>
    <linearGradient id="g2" x1="300" y1="620" x2="300" y2="280" gradientUnits="userSpaceOnUse">
      <stop stop-color="#22C55E"/>
      <stop offset="1" stop-color="#86EFAC"/>
    </linearGradient>
    <linearGradient id="g3" x1="440" y1="620" x2="440" y2="200" gradientUnits="userSpaceOnUse">
      <stop stop-color="#22C55E"/>
      <stop offset="1" stop-color="#86EFAC"/>
    </linearGradient>
  </defs>

  <rect width="1200" height="800" rx="40" fill="url(#bg1)"/>
  <circle cx="980" cy="140" r="180" fill="#60A5FA" fill-opacity="0.12"/>
  <circle cx="1080" cy="680" r="220" fill="#22C55E" fill-opacity="0.10"/>

  <text x="70" y="110" fill="white" font-size="56" font-family="Arial, Helvetica, sans-serif" font-weight="700">CashFlow</text>
  <text x="70" y="160" fill="#93C5FD" font-size="28" font-family="Arial, Helvetica, sans-serif">Финансы • рост • стратегия</text>

  <rect x="70" y="220" width="460" height="480" rx="28" fill="white" fill-opacity="0.06" stroke="white" stroke-opacity="0.12"/>
  <text x="110" y="285" fill="white" font-size="34" font-family="Arial, Helvetica, sans-serif" font-weight="700">Путь к свободе</text>
  <text x="110" y="330" fill="#CBD5E1" font-size="22" font-family="Arial, Helvetica, sans-serif">Доход, активы, решения и риск</text>

  <rect x="120" y="500" width="80" height="120" rx="18" fill="url(#g1)"/>
  <rect x="260" y="420" width="80" height="200" rx="18" fill="url(#g2)"/>
  <rect x="400" y="340" width="80" height="280" rx="18" fill="url(#g3)"/>

  <path d="M120 650 C240 580, 320 500, 470 300" stroke="#F8FAFC" stroke-width="10" stroke-linecap="round"/>
  <path d="M470 300 L440 308 L456 332" stroke="#F8FAFC" stroke-width="10" stroke-linecap="round" stroke-linejoin="round"/>

  <g transform="translate(680 180)">
    <rect width="430" height="260" rx="30" fill="white" fill-opacity="0.08" stroke="white" stroke-opacity="0.16"/>
    <circle cx="72" cy="76" r="34" fill="#22C55E" fill-opacity="0.18"/>
    <text x="53" y="88" fill="#BBF7D0" font-size="34" font-family="Arial, Helvetica, sans-serif" font-weight="700">$</text>
    <text x="130" y="80" fill="white" font-size="32" font-family="Arial, Helvetica, sans-serif" font-weight="700">+ Доход</text>
    <text x="130" y="125" fill="#CBD5E1" font-size="22" font-family="Arial, Helvetica, sans-serif">Строй стратегию и расти быстрее</text>

    <rect x="42" y="165" width="150" height="42" rx="14" fill="#22C55E" fill-opacity="0.18"/>
    <text x="82" y="193" fill="#BBF7D0" font-size="22" font-family="Arial, Helvetica, sans-serif" font-weight="700">Активы</text>

    <rect x="212" y="165" width="176" height="42" rx="14" fill="#60A5FA" fill-opacity="0.18"/>
    <text x="252" y="193" fill="#BFDBFE" font-size="22" font-family="Arial, Helvetica, sans-serif" font-weight="700">Инвестиции</text>
  </g>
</svg>